<svg width="60" height="60" viewBox="0 0 60 60" fill="none" xmlns="http://www.w3.org/2000/svg">
<path fill-rule="evenodd" clip-rule="evenodd" d="M0 30C0 13.4319 13.4314 0 29.9995 0C46.5676 0 60 13.4319 60 30C60 46.5676 46.5676 60.0005 29.9995 60.0005C13.4314 60.0005 0 46.5676 0 30ZM39.2172 44.8044C41.164 44.8044 42.7425 43.226 42.7425 41.2787V29.8947C42.7425 28.6446 42.091 27.5495 41.1101 26.9234C41.2278 26.2522 41.2927 25.5623 41.2927 24.8568C41.2927 18.4449 36.2268 13.228 30 13.228C23.7732 13.228 18.7073 18.4449 18.7073 24.8568C18.7073 25.5623 18.7722 26.2522 18.8894 26.9234C17.909 27.5495 17.257 28.6451 17.257 29.8947V41.2787C17.257 43.226 18.8355 44.8044 20.7822 44.8044H39.2172ZM22.8572 24.8568C22.8572 20.7329 26.0613 17.3778 30 17.3778C33.9387 17.3778 37.1429 20.7329 37.1424 24.8568C37.1424 25.3745 37.0921 25.8802 36.9956 26.3689H23.004C22.908 25.8802 22.8572 25.375 22.8572 24.8568Z" fill="black"/>
</svg>
